<?xml version="1.0" standalone="no"?>
<!DOCTYPE svg PUBLIC "-//W3C//DTD SVG 20010904//EN"
 "http://www.w3.org/TR/2001/REC-SVG-20010904/DTD/svg10.dtd">
<svg version="1.0" xmlns="http://www.w3.org/2000/svg"
 width="644.000000pt" height="644.000000pt" viewBox="0 0 644.000000 644.000000"
 preserveAspectRatio="xMidYMid meet">
<metadata>
Created by potrace 1.14, written by Peter Selinger 2001-2017
</metadata>
<g transform="translate(0.000000,644.000000) scale(0.100000,-0.100000)"
fill="#000000" stroke="none">
<path d="M2425 5890 c-27 -4 -53 -5 -57 -3 -4 2 -9 -1 -13 -7 -4 -6 -11 -8
-16 -5 -5 4 -51 -1 -101 -10 -51 -9 -106 -19 -122 -22 -51 -8 -299 -80 -366
-106 -199 -75 -390 -172 -560 -285 -63 -41 -117 -78 -120 -82 -3 -3 -27 -23
-55 -44 -92 -69 -220 -190 -345 -325 -76 -82 -321 -421 -305 -421 3 0 -10 -24
-28 -52 -40 -65 -129 -251 -152 -318 -1 -3 -4 -12 -8 -20 -15 -36 -67 -193
-71 -213 -3 -12 -14 -53 -24 -92 -11 -38 -23 -86 -26 -105 -3 -19 -8 -46 -11
-60 -15 -76 -16 -83 -32 -225 -10 -86 -9 -471 1 -540 4 -27 10 -68 13 -90 4
-22 6 -43 5 -47 -4 -16 69 -328 88 -373 4 -11 14 -40 21 -65 7 -25 16 -49 19
-55 4 -5 13 -27 20 -48 7 -22 18 -51 26 -65 8 -15 14 -30 14 -34 0 -9 83 -182
107 -223 60 -103 109 -180 115 -183 5 -2 8 -10 8 -18 0 -8 5 -14 10 -14 6 0
10 -5 10 -11 0 -14 131 -183 207 -268 156 -171 319 -314 498 -432 66 -44 125
-83 131 -87 44 -30 255 -135 351 -173 185 -74 374 -129 532 -155 18 -3 43 -8
55 -10 11 -3 37 -7 56 -9 19 -3 51 -8 70 -11 19 -3 132 -7 250 -9 193 -3 258
0 395 20 22 3 55 8 74 11 19 2 55 9 80 15 25 6 57 13 71 15 69 13 243 69 355
114 116 46 130 52 134 50 2 -1 7 2 10 7 3 4 47 28 96 52 50 24 109 57 133 73
24 15 45 28 47 28 9 0 110 65 129 82 11 10 26 18 33 18 7 0 13 5 13 10 0 6 7
10 15 10 8 0 15 4 15 9 0 5 17 20 38 32 20 13 39 26 42 29 3 3 41 35 85 70
106 86 121 99 234 209 99 96 186 174 224 200 12 8 30 23 40 32 9 8 30 22 45
30 15 7 41 23 57 35 85 62 314 160 468 200 4 1 8 2 10 4 1 1 9 3 17 5 8 1 42
8 75 15 33 7 67 14 75 15 8 1 33 5 55 9 112 19 423 25 570 12 39 -4 89 -9 113
-11 l43 -4 -5 42 c-3 23 -12 74 -21 112 -9 39 -18 79 -20 91 -20 96 -129 393
-149 406 -6 4 -8 8 -4 8 12 0 -127 248 -152 270 -3 3 -24 30 -47 60 -102 132
-264 269 -413 346 -30 16 -56 32 -58 37 -2 4 -15 7 -28 7 -13 0 -24 4 -24 8 0
5 -27 17 -60 28 -33 10 -60 23 -60 27 0 5 -4 6 -9 3 -21 -13 -40 22 -45 84 -3
36 -8 76 -10 90 -3 14 -7 45 -10 70 -3 25 -9 56 -12 70 -3 14 -7 34 -9 45 -4
27 -64 255 -72 275 -3 8 -7 20 -8 25 -7 30 -100 257 -133 323 -79 158 -218
383 -299 481 -133 163 -281 313 -403 412 -104 83 -180 139 -189 139 -5 0 -11
4 -13 8 -3 9 -138 94 -213 134 -87 47 -268 132 -305 143 -14 4 -38 13 -55 20
-104 46 -382 115 -565 141 -25 3 -58 8 -75 11 -53 8 -468 10 -520 3z m725
-945 c212 -22 402 -93 592 -220 100 -68 264 -233 332 -334 97 -146 169 -319
202 -489 18 -93 26 -317 14 -385 -5 -23 -10 -63 -13 -89 -3 -26 -10 -56 -16
-66 -6 -11 -8 -22 -5 -25 3 -3 1 -13 -4 -24 -5 -10 -17 -43 -27 -73 -21 -67
-115 -260 -127 -260 -4 0 -8 -5 -8 -11 0 -30 -152 -206 -247 -287 -146 -124
-342 -225 -517 -268 -175 -43 -392 -50 -546 -19 -8 2 -29 6 -46 9 -55 10 -168
47 -222 72 -29 13 -55 24 -58 24 -13 0 -155 88 -219 136 -160 119 -291 276
-383 460 -28 55 -68 156 -77 194 -2 8 -11 42 -19 75 -23 86 -37 200 -36 290 1
75 9 197 15 214 2 9 7 30 10 46 10 58 15 78 27 114 7 20 13 38 13 41 3 18 22
65 51 128 19 40 34 77 34 82 0 6 4 10 9 10 5 0 11 8 15 18 5 17 26 52 36 62 3
3 14 19 24 35 22 35 109 139 146 174 68 67 181 154 239 186 20 11 38 23 41 26
19 22 239 107 335 129 80 19 86 20 165 26 41 4 76 8 78 9 4 3 130 -3 192 -10z"/>
</g>
</svg>
