<?xml version="1.0" standalone="no"?>
<!DOCTYPE svg PUBLIC "-//W3C//DTD SVG 20010904//EN"
 "http://www.w3.org/TR/2001/REC-SVG-20010904/DTD/svg10.dtd">
<svg version="1.0" xmlns="http://www.w3.org/2000/svg"
 width="1024.000000pt" height="1024.000000pt" viewBox="0 0 1024.000000 1024.000000"
 preserveAspectRatio="xMidYMid meet">
<metadata>
Created by potrace 1.14, written by Peter Selinger 2001-2017
</metadata>
<g transform="translate(0.000000,1024.000000) scale(0.100000,-0.100000)"
fill="#000000" stroke="none">
<path d="M4238 8615 c-2 -2 -44 -7 -93 -10 -50 -3 -106 -8 -125 -10 -40 -4
-166 -15 -225 -20 -22 -2 -40 -4 -40 -5 0 -1 -32 -6 -111 -15 -29 -3 -60 -7
-70 -9 -11 -2 -46 -7 -79 -11 -32 -4 -67 -8 -76 -10 -9 -2 -32 -6 -50 -9 -19
-3 -43 -7 -54 -10 -11 -2 -42 -7 -69 -10 -27 -4 -52 -9 -56 -11 -3 -2 -26 -6
-50 -10 -82 -12 -172 -32 -310 -70 -152 -41 -281 -97 -465 -200 -53 -30 -346
-222 -380 -249 -11 -9 -65 -51 -120 -93 -116 -89 -209 -165 -213 -175 -2 -5
-11 -8 -19 -8 -9 0 -13 -3 -10 -7 4 -3 -6 -16 -21 -27 -123 -92 -366 -348
-542 -569 -8 -11 -21 -25 -28 -32 -6 -8 -12 -16 -12 -20 0 -4 -6 -13 -13 -20
-37 -42 -217 -299 -217 -310 0 -4 -6 -13 -14 -20 -8 -8 -53 -81 -101 -162 -47
-82 -90 -155 -95 -163 -5 -8 -20 -35 -32 -60 -13 -25 -25 -47 -28 -50 -10 -10
-121 -249 -153 -330 -18 -47 -46 -125 -61 -175 -33 -106 -34 -108 -32 -116 0
-3 -5 -13 -13 -22 -7 -10 -11 -17 -8 -17 3 0 -3 -28 -14 -62 -27 -90 -101
-391 -114 -470 -3 -18 -12 -64 -20 -103 -14 -71 -24 -127 -31 -178 -2 -16 -6
-32 -8 -35 -2 -4 -7 -39 -11 -77 -4 -39 -9 -73 -11 -76 -2 -3 -6 -35 -9 -70
-4 -35 -8 -71 -10 -79 -26 -98 -26 -565 0 -720 3 -19 7 -48 10 -65 6 -46 24
-133 36 -179 6 -23 13 -49 15 -58 9 -41 14 -56 34 -113 11 -33 22 -67 24 -75
8 -32 90 -216 108 -242 10 -14 18 -30 18 -35 0 -19 161 -252 230 -334 50 -58
203 -213 242 -244 14 -11 45 -37 69 -57 105 -89 168 -138 177 -138 6 0 12 -4
14 -8 8 -20 305 -212 328 -212 5 0 10 -4 12 -8 12 -30 405 -169 598 -212 181
-40 363 -73 460 -84 25 -3 70 -8 100 -12 62 -9 484 -9 545 -1 37 5 60 8 170
23 44 7 70 12 70 14 0 1 15 3 33 6 19 2 70 13 115 25 45 11 89 22 97 24 8 2
42 11 75 21 33 10 63 19 68 20 4 1 9 3 12 4 3 1 8 3 13 4 4 1 21 6 37 13 59
22 70 26 75 27 25 6 156 62 158 68 2 5 8 8 14 8 17 0 108 44 108 52 0 5 7 8
16 8 14 0 160 93 234 150 274 211 591 505 700 649 14 18 34 45 45 59 11 15 33
45 48 67 32 47 74 97 119 143 86 86 209 101 353 44 70 -28 99 -39 107 -42 4
-1 65 -30 136 -65 193 -95 247 -119 357 -160 95 -36 233 -82 265 -90 8 -2 60
-15 115 -29 99 -25 141 -34 180 -41 11 -2 34 -6 50 -9 45 -10 157 -21 270 -28
11 -1 109 8 195 18 30 3 59 8 63 11 4 2 24 7 45 9 20 2 51 7 67 11 17 4 33 6
37 5 4 -1 25 5 47 13 23 8 41 12 41 10 0 -2 18 2 40 10 22 8 42 14 45 15 3 0
6 0 8 1 1 0 9 2 17 4 123 24 418 133 622 228 116 55 313 126 388 141 14 3 43
10 64 15 22 5 43 8 47 5 4 -2 11 1 14 7 4 5 12 8 19 6 6 -2 47 1 91 7 118 17
317 13 480 -9 86 -12 121 -18 128 -22 4 -2 20 -6 35 -8 15 -3 38 -7 52 -10 14
-3 41 -8 60 -11 19 -2 49 -8 65 -13 24 -7 78 -18 115 -24 3 0 21 -4 40 -9 19
-4 53 -11 75 -14 22 -4 48 -10 58 -15 9 -6 17 -8 17 -5 0 2 37 -4 83 -14 45
-10 85 -15 89 -12 4 4 1 36 -7 72 -7 36 -16 81 -19 100 -6 35 -11 64 -21 110
-7 33 -14 68 -21 105 -3 17 -10 50 -15 75 -13 53 -14 61 -25 120 -4 25 -8 47
-9 50 -8 28 -16 59 -19 80 -3 14 -8 36 -11 50 -3 14 -8 36 -11 49 -3 14 -7 28
-9 32 -3 4 -7 24 -10 45 -3 22 -9 46 -12 54 -3 8 -13 49 -23 90 -21 86 -52
201 -75 280 -9 30 -18 63 -20 72 -2 9 -9 26 -15 37 -6 12 -9 21 -6 21 3 0 -9
39 -26 88 -16 48 -31 92 -33 97 -1 6 -5 17 -8 25 -3 8 -17 44 -30 80 -34 92
-117 271 -150 324 -37 61 -128 190 -182 261 -56 73 -227 247 -290 297 -16 13
-37 30 -46 38 -50 47 -165 124 -246 164 -39 20 -97 56 -131 81 -83 62 -251
229 -358 355 -49 58 -91 107 -94 110 -3 3 -16 21 -29 40 -14 19 -30 39 -38 43
-7 4 -13 14 -13 21 0 8 -6 19 -14 25 -22 18 -100 134 -195 288 -30 48 -57 90
-60 93 -4 3 -15 19 -25 35 -38 61 -163 222 -235 305 -101 115 -361 370 -378
370 -2 0 -14 9 -26 21 -38 36 -244 189 -255 189 -5 0 -12 7 -16 15 -3 8 -12
15 -21 15 -8 0 -15 5 -15 10 0 6 -7 10 -15 10 -8 0 -15 5 -15 10 0 6 -5 10
-11 10 -5 0 -36 17 -67 39 -31 21 -75 48 -97 60 -45 24 -78 44 -85 51 -3 3
-37 22 -76 42 -40 21 -87 46 -105 55 -19 10 -35 21 -37 26 -2 4 -12 7 -23 7
-10 0 -19 5 -19 10 0 6 -4 10 -10 10 -5 0 -67 28 -137 63 -70 35 -146 71 -168
80 -33 13 -128 54 -250 106 -25 11 -88 35 -95 37 -5 1 -14 4 -75 27 -16 7 -32
12 -35 12 -3 1 -43 13 -90 28 -134 42 -319 88 -415 103 -16 3 -55 9 -85 14
-30 5 -75 12 -100 15 -25 3 -63 8 -85 11 -44 7 -651 14 -657 9z m257 -1079
c137 -37 341 -129 493 -221 9 -6 40 -24 67 -40 28 -16 55 -33 60 -37 6 -5 21
-17 34 -28 13 -11 28 -20 33 -20 4 0 16 -8 26 -17 10 -10 39 -32 64 -50 117
-83 234 -203 327 -338 74 -106 167 -292 172 -340 0 -5 4 -14 9 -20 10 -11 46
-151 55 -210 17 -109 19 -138 19 -245 0 -132 -6 -186 -35 -302 -11 -46 -23
-96 -25 -112 -3 -17 -15 -53 -26 -80 -11 -28 -21 -58 -23 -68 -4 -18 -59 -147
-83 -193 -9 -16 -17 -36 -18 -44 -2 -8 -6 -17 -11 -20 -5 -3 -14 -19 -22 -36
-19 -43 -132 -214 -187 -282 -59 -74 -289 -303 -303 -303 -6 0 -11 -4 -11 -8
0 -11 -176 -126 -230 -150 -118 -52 -218 -81 -335 -97 -22 -4 -51 -8 -65 -10
-59 -10 -143 -16 -257 -20 -68 -2 -126 -6 -130 -8 -5 -3 -17 -1 -27 3 -11 3
-37 4 -57 0 -21 -4 -43 -4 -50 1 -7 4 -22 3 -35 -1 -12 -5 -24 -6 -27 -3 -3 3
-62 7 -132 9 -69 2 -152 6 -183 9 -158 15 -150 14 -222 29 -14 3 -40 9 -58 12
-18 3 -35 10 -38 15 -3 5 -9 7 -13 5 -10 -6 -94 25 -163 60 -61 31 -155 98
-211 152 -59 55 -150 152 -143 152 3 0 -5 10 -17 23 -12 13 -29 34 -37 46 -8
13 -19 29 -25 35 -5 6 -19 27 -29 46 -11 19 -22 37 -25 40 -6 5 -17 26 -100
185 -70 135 -128 290 -160 425 -22 96 -21 227 4 355 9 50 19 100 21 113 13 67
70 284 94 352 97 281 204 475 332 603 16 15 28 30 28 33 0 20 264 253 375 330
30 21 185 108 195 110 3 0 22 8 44 17 21 9 44 17 52 17 7 0 15 4 18 9 3 4 20
12 38 16 18 4 38 9 43 11 19 6 160 44 180 49 11 2 31 6 45 10 41 9 73 15 110
21 19 3 46 7 60 10 14 2 50 6 80 10 30 3 56 7 58 9 2 1 74 2 160 0 107 -1 176
-8 217 -19z m3690 -2627 c39 -12 73 -28 77 -33 4 -6 8 -8 8 -3 0 4 18 -4 40
-18 22 -14 43 -25 48 -25 4 0 40 -29 78 -65 68 -61 117 -135 130 -197 7 -31 7
-127 0 -158 -11 -49 -50 -150 -58 -150 -4 0 -8 -6 -8 -13 0 -15 -80 -140 -92
-145 -5 -2 -8 -10 -8 -17 0 -7 -3 -15 -7 -17 -5 -1 -33 -32 -63 -67 -63 -74
-171 -183 -253 -256 -200 -179 -430 -327 -574 -370 -49 -15 -171 -12 -202 5
-12 6 -21 8 -21 5 0 -4 -6 -3 -12 2 -7 4 -16 8 -20 9 -5 1 -10 3 -13 4 -3 1
-8 3 -12 4 -64 13 -352 159 -479 241 -49 32 -91 61 -94 64 -3 3 -23 19 -45 36
-71 52 -201 188 -243 253 -54 84 -76 151 -76 237 0 85 16 147 62 243 35 72
116 172 140 172 6 0 12 3 12 8 0 9 74 40 139 57 53 14 248 13 351 -1 67 -10
342 -11 390 -2 91 17 129 36 177 89 19 21 41 39 48 39 7 0 18 6 24 14 16 19
152 62 231 72 19 3 36 7 38 9 2 2 52 2 111 1 77 -3 125 -10 176 -27z"/>
</g>
</svg>
