<?xml version="1.0" standalone="no"?>
<!DOCTYPE svg PUBLIC "-//W3C//DTD SVG 20010904//EN"
 "http://www.w3.org/TR/2001/REC-SVG-20010904/DTD/svg10.dtd">
<svg version="1.0" xmlns="http://www.w3.org/2000/svg"
 width="1128.000000pt" height="1128.000000pt" viewBox="0 0 1128.000000 1128.000000"
 preserveAspectRatio="xMidYMid meet">
<metadata>
Created by potrace 1.14, written by Peter Selinger 2001-2017
</metadata>
<g transform="translate(0.000000,1128.000000) scale(0.100000,-0.100000)"
fill="#000000" stroke="none">
<path d="M4385 10330 c-38 -3 -91 -5 -117 -5 -27 0 -48 -2 -48 -5 0 -4 -10 -6
-22 -7 -13 0 -43 -3 -68 -6 -25 -4 -65 -9 -90 -12 -25 -3 -58 -7 -75 -10 -16
-3 -41 -7 -55 -9 -14 -2 -38 -6 -55 -9 -16 -4 -43 -9 -60 -12 -16 -3 -41 -7
-55 -10 -14 -3 -36 -8 -50 -11 -14 -3 -70 -16 -125 -30 -55 -14 -109 -27 -119
-30 -34 -6 -218 -64 -291 -91 -38 -14 -76 -25 -82 -26 -7 0 -13 -5 -13 -10 0
-6 -3 -8 -6 -5 -4 5 -81 -23 -204 -75 -14 -6 -28 -10 -32 -9 -5 1 -8 -3 -8
-10 0 -6 -3 -9 -6 -6 -3 3 -37 -9 -75 -28 -38 -19 -74 -34 -79 -34 -6 0 -10
-5 -10 -10 0 -6 -3 -9 -7 -8 -8 2 -142 -64 -223 -110 -128 -72 -269 -159 -301
-184 -20 -15 -40 -28 -44 -28 -4 0 -24 -13 -45 -30 -21 -16 -42 -30 -48 -30
-6 0 -12 -4 -14 -8 -1 -5 -30 -28 -63 -52 -256 -186 -524 -434 -760 -704 -11
-13 -32 -37 -47 -54 -16 -18 -28 -36 -28 -42 0 -5 -4 -10 -9 -10 -4 0 -25 -23
-45 -52 -20 -29 -36 -48 -36 -43 0 5 -14 -13 -31 -41 -17 -27 -34 -51 -38 -54
-3 -3 -17 -22 -31 -42 -14 -21 -28 -38 -32 -38 -5 0 -8 -5 -8 -10 0 -6 -15
-32 -33 -58 -56 -80 -137 -212 -137 -222 0 -6 -4 -10 -9 -10 -5 0 -13 -10 -17
-22 -3 -13 -12 -30 -20 -38 -21 -25 -224 -433 -224 -452 0 -10 -4 -18 -10 -18
-5 0 -10 -7 -10 -15 0 -8 -11 -38 -24 -67 -13 -29 -27 -64 -31 -77 -4 -13 -14
-40 -23 -60 -9 -20 -16 -40 -18 -46 -1 -5 -18 -57 -38 -113 -20 -57 -33 -108
-30 -113 3 -5 1 -9 -4 -9 -9 0 -17 -26 -28 -85 -2 -11 -8 -31 -13 -45 -9 -23
-44 -164 -55 -220 -2 -14 -10 -50 -16 -80 -7 -30 -16 -74 -20 -98 -4 -23 -8
-45 -8 -47 -1 -3 -2 -6 -3 -7 -2 -8 -9 -60 -13 -108 -3 -30 -6 -55 -6 -55 -4
0 -13 -72 -28 -230 -4 -38 -7 -207 -7 -375 0 -313 5 -410 31 -595 3 -22 7 -58
9 -80 3 -22 7 -51 10 -65 2 -13 7 -40 10 -60 3 -20 8 -47 11 -60 3 -14 7 -34
9 -45 3 -11 11 -51 19 -90 21 -99 64 -272 82 -325 9 -25 17 -52 19 -60 2 -8
13 -46 26 -85 13 -38 24 -72 24 -75 1 -3 7 -18 14 -35 7 -16 14 -34 15 -40 2
-11 22 -65 41 -110 7 -16 28 -66 46 -110 18 -44 38 -89 45 -100 7 -11 13 -23
13 -28 1 -9 83 -180 90 -187 3 -3 7 -10 8 -16 1 -6 18 -39 38 -72 19 -33 35
-65 35 -71 0 -6 5 -11 10 -11 6 0 10 -5 10 -10 0 -6 18 -39 40 -74 22 -35 40
-68 40 -74 0 -6 3 -12 8 -14 4 -1 33 -43 66 -93 57 -88 208 -297 234 -323 7
-8 25 -30 40 -50 15 -21 32 -42 37 -48 6 -6 30 -34 55 -64 57 -67 231 -250
289 -304 24 -23 67 -63 97 -91 29 -27 61 -57 71 -65 10 -8 43 -35 73 -60 30
-25 57 -48 60 -51 3 -3 48 -38 100 -78 52 -39 100 -74 105 -79 51 -38 117 -82
125 -82 6 0 10 -4 10 -9 0 -5 12 -16 28 -24 15 -8 71 -42 124 -76 53 -33 102
-61 107 -61 6 0 11 -4 11 -9 0 -5 15 -14 33 -22 17 -7 34 -16 37 -19 4 -5 110
-58 393 -196 16 -8 35 -14 43 -14 8 0 14 -4 14 -8 0 -4 10 -8 22 -9 11 -1 24
-6 27 -10 3 -4 24 -14 46 -21 22 -7 49 -17 60 -23 30 -13 217 -80 239 -84 11
-3 47 -13 80 -24 60 -19 133 -40 168 -46 10 -2 22 -6 26 -9 5 -3 19 -7 33 -10
13 -2 58 -12 99 -21 41 -9 86 -19 100 -21 14 -3 50 -9 80 -15 101 -19 115 -21
152 -23 21 0 38 -4 38 -7 0 -3 6 -6 13 -6 6 0 41 -4 77 -8 36 -3 85 -8 110
-11 25 -2 72 -6 105 -9 153 -15 610 -9 785 10 74 7 146 16 170 20 14 2 45 7
70 10 24 4 47 8 50 10 3 2 30 6 60 10 30 4 58 9 61 11 4 2 24 6 45 9 22 4 48
9 59 12 11 4 26 8 34 9 48 9 122 28 156 41 22 8 40 14 40 13 0 -5 234 66 285
87 8 3 23 8 32 9 9 2 43 15 75 30 32 14 65 27 73 29 38 8 389 170 450 208 19
12 41 22 48 23 8 2 22 10 31 18 10 9 21 16 25 16 10 0 184 102 283 167 45 29
87 53 93 53 6 0 8 5 5 10 -3 6 -2 10 4 10 9 0 128 77 141 91 3 3 33 25 68 48
34 24 62 48 62 53 0 5 4 7 9 4 5 -4 11 -3 13 1 1 5 46 41 98 82 52 41 105 84
116 95 12 12 43 39 70 61 82 68 143 125 309 286 175 171 202 197 253 237 19
15 61 49 94 75 70 56 260 182 333 221 28 15 69 38 93 52 23 14 42 21 42 17 0
-4 4 -3 8 2 7 10 147 77 232 110 25 10 60 24 78 32 18 8 40 16 50 18 9 2 53
16 97 30 44 15 87 28 95 30 8 2 71 17 140 34 69 16 139 32 155 35 17 3 41 7
55 10 14 2 43 7 65 10 22 3 51 8 65 10 24 4 98 12 210 22 30 2 99 6 152 8 53
2 101 7 107 10 5 4 12 3 15 -2 5 -9 47 -9 63 1 7 4 14 4 16 -1 3 -4 32 -6 64
-4 32 2 63 3 68 2 6 0 39 -2 75 -5 114 -7 223 -15 275 -21 28 -3 80 -6 117 -7
38 -1 68 -5 68 -9 0 -4 7 -5 16 -1 12 4 14 14 9 42 -4 20 -9 50 -11 66 -5 36
-12 69 -14 73 -3 3 -5 10 -15 67 -4 28 -10 55 -11 60 -2 6 -5 21 -8 35 -3 14
-20 75 -36 135 -17 61 -33 118 -35 128 -6 29 -85 259 -99 292 -8 17 -17 41
-21 55 -4 14 -12 30 -17 36 -5 7 -11 21 -13 32 -5 30 -154 330 -187 379 -15
23 -28 46 -28 52 0 6 -4 11 -10 11 -5 0 -10 5 -10 11 0 14 -105 167 -169 247
-28 34 -51 65 -51 68 0 9 -270 276 -308 304 -18 14 -45 35 -60 48 -15 12 -58
44 -97 70 -38 26 -71 50 -73 55 -2 4 -8 7 -13 7 -5 0 -37 17 -71 38 -58 35
-164 88 -248 124 -19 8 -48 21 -65 28 -16 8 -32 14 -35 15 -8 3 -37 14 -123
47 -43 17 -80 36 -82 42 -4 10 -10 65 -21 184 -2 29 -7 67 -10 85 -2 18 -7 46
-9 62 -9 62 -23 149 -31 190 -2 11 -7 34 -10 50 -3 17 -9 48 -15 70 -9 39 -15
62 -23 108 -3 12 -17 65 -31 117 -15 52 -28 102 -30 110 -5 22 -84 262 -94
285 -27 60 -71 182 -71 193 0 6 -4 12 -9 12 -5 0 -12 11 -15 25 -4 14 -25 65
-48 113 -23 48 -42 89 -43 92 -1 8 -70 141 -119 229 -25 46 -46 87 -46 91 0 5
-3 10 -7 12 -10 4 -73 106 -73 117 0 4 -9 16 -20 26 -11 10 -20 22 -20 27 0 9
-36 62 -57 86 -7 7 -13 19 -13 27 0 7 -4 15 -8 17 -5 2 -26 28 -48 58 -21 30
-41 57 -44 60 -3 3 -17 21 -30 40 -13 19 -29 40 -35 46 -5 6 -21 26 -35 44
-14 18 -33 42 -43 54 -10 11 -37 43 -60 70 -107 127 -336 361 -431 441 -26 22
-71 61 -99 87 -28 26 -52 46 -54 44 -2 -2 -19 11 -37 28 -43 40 -75 66 -82 66
-3 0 -11 6 -18 13 -7 6 -24 20 -37 30 -298 220 -637 415 -959 550 -155 65
-343 135 -376 141 -13 3 -28 8 -34 11 -12 7 -131 43 -169 51 -14 3 -28 7 -33
10 -5 3 -21 7 -36 10 -15 3 -34 7 -42 11 -8 3 -24 7 -36 8 -11 2 -38 8 -60 14
-21 5 -50 12 -64 15 -14 3 -45 10 -70 16 -25 5 -65 13 -90 16 -25 3 -56 9 -70
13 -14 4 -40 7 -57 7 -18 -1 -33 2 -33 6 0 4 -8 7 -17 7 -10 0 -38 2 -63 5
-25 3 -74 8 -110 11 -36 4 -87 9 -115 11 -79 8 -582 11 -660 4z m945 -1609 c3
-2 25 -4 50 -6 54 -3 140 -15 218 -30 15 -3 34 -7 42 -9 41 -7 130 -30 167
-42 23 -7 52 -15 65 -18 43 -9 189 -63 275 -102 18 -8 34 -14 35 -14 6 3 224
-115 294 -158 63 -39 229 -161 288 -212 68 -58 259 -252 301 -305 22 -27 42
-52 45 -55 17 -15 100 -130 100 -137 0 -5 8 -18 18 -29 34 -37 198 -327 190
-337 -2 -2 4 -14 13 -27 25 -41 95 -226 91 -242 -1 -5 3 -8 10 -8 6 0 9 -3 5
-6 -3 -4 0 -21 8 -39 7 -19 11 -36 7 -39 -3 -3 -1 -6 4 -6 5 0 10 -8 11 -17 0
-10 3 -27 6 -38 12 -48 37 -157 41 -183 3 -15 8 -43 11 -62 7 -35 9 -54 22
-185 10 -104 5 -490 -7 -490 -1 0 -3 -20 -5 -45 -2 -25 -6 -56 -10 -70 -3 -14
-8 -41 -11 -60 -3 -19 -15 -73 -26 -120 -11 -47 -21 -92 -23 -100 -2 -8 -8
-27 -14 -42 -6 -16 -8 -28 -5 -28 4 0 1 -7 -6 -15 -7 -8 -9 -15 -5 -15 4 0 3
-6 -3 -13 -6 -7 -13 -24 -16 -37 -4 -25 -79 -208 -99 -245 -6 -11 -12 -24 -13
-30 -1 -5 -21 -44 -44 -85 -23 -41 -46 -85 -51 -97 -5 -13 -13 -23 -19 -23 -6
0 -9 -4 -6 -9 3 -5 -1 -14 -9 -21 -8 -7 -15 -19 -15 -26 0 -8 -4 -14 -8 -14
-5 0 -15 -12 -23 -27 -16 -31 -18 -35 -54 -79 -14 -18 -25 -36 -25 -41 0 -4
-9 -14 -20 -21 -11 -7 -20 -16 -20 -22 0 -5 -10 -20 -22 -33 -13 -13 -48 -52
-77 -86 -85 -98 -212 -217 -326 -306 -90 -71 -327 -225 -337 -219 -3 2 -8 0
-10 -5 -4 -11 -189 -100 -283 -136 -132 -50 -145 -55 -145 -49 0 4 -6 1 -13
-5 -8 -6 -24 -13 -38 -15 -13 -3 -24 -5 -24 -6 0 -1 -7 -3 -15 -5 -8 -1 -52
-12 -97 -24 -46 -12 -97 -24 -115 -26 -18 -3 -44 -8 -58 -10 -14 -3 -45 -7
-70 -10 -25 -3 -63 -7 -85 -10 -22 -3 -70 -7 -108 -9 -37 -2 -70 -6 -73 -9 -3
-3 -17 -2 -30 3 -15 6 -26 6 -30 -1 -4 -7 -10 -7 -18 0 -7 6 -17 6 -26 1 -8
-5 -18 -6 -24 -3 -5 4 -43 8 -85 9 -70 3 -145 9 -229 18 -27 3 -82 13 -112 21
-3 0 -21 4 -40 8 -103 21 -186 43 -290 77 -72 23 -85 28 -150 58 -25 11 -57
24 -72 27 -16 4 -28 12 -28 18 0 6 -3 8 -6 5 -5 -6 -60 21 -169 81 -16 9 -33
20 -36 24 -3 5 -10 8 -14 6 -4 -1 -14 3 -24 9 -9 7 -45 31 -81 55 -71 47 -132
89 -140 97 -3 3 -27 23 -55 45 -151 121 -281 253 -432 439 -8 10 -39 55 -69
100 -30 44 -58 86 -62 91 -4 6 -17 26 -28 45 -10 19 -23 38 -29 42 -7 5 -7 8
0 8 7 0 7 3 0 8 -36 26 -225 469 -208 486 4 3 2 6 -4 6 -5 0 -10 6 -10 13 0 6
-8 39 -17 72 -10 33 -20 69 -22 80 -2 11 -7 34 -10 50 -4 17 -8 39 -10 50 -1
11 -3 20 -4 20 -2 0 -6 34 -13 98 -1 9 -4 17 -7 17 -3 0 -6 24 -7 53 -2 28 -5
77 -8 107 -5 63 -6 330 0 375 1 17 7 62 11 100 11 100 16 139 28 190 9 40 16
75 22 105 12 58 73 259 93 305 5 11 14 34 22 50 7 17 13 33 13 37 1 3 4 10 9
14 4 4 7 16 7 26 0 10 5 18 11 18 5 0 7 5 4 10 -3 6 -1 10 6 10 7 0 10 3 6 6
-6 6 64 145 109 216 13 20 24 40 24 43 0 3 5 11 10 18 6 7 25 35 43 62 140
220 376 466 610 637 29 20 57 41 62 46 6 4 26 17 45 28 19 10 38 23 41 27 7
10 70 44 189 104 52 27 98 53 102 58 4 6 8 6 8 1 0 -5 6 -4 13 1 32 26 249
101 413 143 112 29 134 34 209 45 17 2 41 6 55 9 14 2 51 7 84 10 32 3 60 7
62 8 3 4 396 2 404 -1z"/>
</g>
</svg>
