<svg xmlns="http://www.w3.org/2000/svg" viewBox="0 0 245 121">
	<path
		fill="#f0f"
		d="M33 121c21 0 36-17 42-45l1-10 1-12c0-24-12-39-33-39S8 32 3 60l-2 7-1 15c0 25 12 39 33 39Zm11-91c8 0 14 6 16 16L17 74l1-7 1-4c4-21 13-33 25-33Zm-11 76c-8 0-14-5-16-16l43-28-1 7-1 4c-3 21-13 33-25 33ZM92 119h16l11-64h32l3-13h-33l2-7c1-7 6-10 15-10l19 1 2-13-20-1c-20 0-30 7-32 24l-2 6H85l-3 13h21l-11 64ZM167 119h16l11-64h32l2-13h-32l1-7c2-7 7-10 15-10l19 1 2-13-19-1c-20 0-30 7-33 24l-1 6h-21l-2 13h21l-11 64Z"
	/>
	<path
		fill="#ff0"
		d="M39 108c21 0 36-16 41-44l2-10 1-12C83 17 71 3 50 3S14 19 8 47l-1 7-1 16c0 24 12 38 33 38Zm10-91c9 0 15 6 17 17L23 62l1-8v-3c4-21 14-34 25-34ZM39 94c-9 0-14-6-16-17l43-27-1 7-1 3c-4 21-13 34-25 34ZM98 106h16l11-63h32l2-13h-32l1-7c2-7 7-11 15-11l19 2 3-13-20-1c-20 0-30 7-33 23l-1 7H91l-3 13h21l-11 63ZM172 106h17l11-63h32l2-13h-32l1-7c1-7 6-11 15-11l19 2 2-13-19-1c-20 0-30 7-33 23l-1 7h-21l-2 13h20l-11 63Z"
	/>
	<path
		fill="#0ff"
		d="M44 118c21 0 36-17 41-45l2-10 1-11c0-25-12-39-33-39S19 29 13 57l-1 7-1 15c0 25 12 39 33 39Zm10-91c9 0 15 6 17 16L28 71l1-7 1-3c3-21 13-34 24-34Zm-10 77c-9 0-14-6-16-17l43-28-1 8-1 3c-3 21-13 34-25 34ZM103 116h16l11-63h32l3-13h-33l2-8c1-6 6-10 14-10l20 1 2-12-20-1c-20 0-30 7-33 23l-1 7H96l-3 13h21l-11 63ZM177 116h17l11-63h32l2-13h-32l1-8c1-6 6-10 15-10l19 1 2-12-19-1c-20 0-30 7-33 23l-1 7h-21l-2 13h21l-12 63Z"
	/>
	<path
		fill="var(--color-fg)"
		d="M38 113c22 0 37-17 42-45l2-10 1-12C83 21 71 7 50 7S14 24 8 51l-1 7-1 16c0 24 12 39 32 39Zm11-91c9 0 15 5 16 16L23 66l1-7v-4c4-21 14-33 25-33ZM39 98c-9 0-14-6-16-16l42-28v7l-1 4c-4 21-13 33-25 33ZM98 111h16l11-64h32l2-13h-32l1-7c2-7 7-10 15-10l19 1 2-13-19-1c-20 0-30 7-33 24l-1 6H91l-3 13h21l-11 64ZM172 111h17l11-64h32l2-13h-32l1-7c1-7 6-10 15-10l19 1 2-13-19-1c-20 0-30 7-33 24l-1 6h-21l-2 13h20l-11 64Z"
	/>
</svg>